<mxfile host="app.diagrams.net" modified="2024-01-21T14:41:11.923Z" agent="Mozilla/5.0 (Windows NT 10.0; Win64; x64; rv:121.0) Gecko/20100101 Firefox/121.0" etag="6vxe6N373L136GkJFLSu" version="22.1.21" type="github" pages="4">
  <diagram name="Overview" id="PMV152I8gQXKeaIALvPA">
    <mxGraphModel dx="941" dy="1253" grid="1" gridSize="10" guides="1" tooltips="1" connect="1" arrows="1" fold="1" page="1" pageScale="1" pageWidth="1169" pageHeight="1654" math="0" shadow="0">
      <root>
        <mxCell id="0" />
        <mxCell id="1" parent="0" />
        <mxCell id="tPSZOP2npqnJCcGGMfZw-3" style="edgeStyle=orthogonalEdgeStyle;rounded=0;orthogonalLoop=1;jettySize=auto;html=1;exitX=0.5;exitY=1;exitDx=0;exitDy=0;entryX=0;entryY=0.5;entryDx=0;entryDy=0;" edge="1" parent="1" source="tPSZOP2npqnJCcGGMfZw-1" target="tPSZOP2npqnJCcGGMfZw-2">
          <mxGeometry relative="1" as="geometry" />
        </mxCell>
        <mxCell id="tPSZOP2npqnJCcGGMfZw-5" style="edgeStyle=orthogonalEdgeStyle;rounded=0;orthogonalLoop=1;jettySize=auto;html=1;exitX=0.5;exitY=1;exitDx=0;exitDy=0;entryX=0;entryY=0.5;entryDx=0;entryDy=0;" edge="1" parent="1" source="tPSZOP2npqnJCcGGMfZw-1" target="tPSZOP2npqnJCcGGMfZw-4">
          <mxGeometry relative="1" as="geometry" />
        </mxCell>
        <mxCell id="tPSZOP2npqnJCcGGMfZw-7" style="edgeStyle=orthogonalEdgeStyle;rounded=0;orthogonalLoop=1;jettySize=auto;html=1;exitX=0.5;exitY=1;exitDx=0;exitDy=0;entryX=0;entryY=0.5;entryDx=0;entryDy=0;" edge="1" parent="1" source="tPSZOP2npqnJCcGGMfZw-1" target="tPSZOP2npqnJCcGGMfZw-6">
          <mxGeometry relative="1" as="geometry" />
        </mxCell>
        <mxCell id="tPSZOP2npqnJCcGGMfZw-1" value="UI Detector&lt;br&gt;(main)" style="rounded=1;whiteSpace=wrap;html=1;" vertex="1" parent="1">
          <mxGeometry x="160" y="460" width="120" height="60" as="geometry" />
        </mxCell>
        <UserObject label="LVGL UI Generator&lt;br&gt;(submodule)" link="data:page/id,I1o0GVHWK5igPFGK1t_H" id="tPSZOP2npqnJCcGGMfZw-2">
          <mxCell style="rounded=1;whiteSpace=wrap;html=1;" vertex="1" parent="1">
            <mxGeometry x="320" y="520" width="120" height="60" as="geometry" />
          </mxCell>
        </UserObject>
        <UserObject label="UI Randomizer&lt;br&gt;(submodule)" link="data:page/id,v5fBXcDf2tc-m4R5Z6yn" id="tPSZOP2npqnJCcGGMfZw-4">
          <mxCell style="rounded=1;whiteSpace=wrap;html=1;" vertex="1" parent="1">
            <mxGeometry x="320" y="600" width="120" height="60" as="geometry" />
          </mxCell>
        </UserObject>
        <UserObject label="Development container&lt;br&gt;(Dockerfile + script)" link="data:page/id,aimYrtN8m5MU8YxvKcbr" id="tPSZOP2npqnJCcGGMfZw-6">
          <mxCell style="rounded=1;whiteSpace=wrap;html=1;" vertex="1" parent="1">
            <mxGeometry x="320" y="680" width="120" height="60" as="geometry" />
          </mxCell>
        </UserObject>
      </root>
    </mxGraphModel>
  </diagram>
  <diagram id="I1o0GVHWK5igPFGK1t_H" name="LVGL UI Generator">
    <mxGraphModel dx="784" dy="1044" grid="1" gridSize="10" guides="1" tooltips="1" connect="1" arrows="1" fold="1" page="1" pageScale="1" pageWidth="1169" pageHeight="1654" math="0" shadow="0">
      <root>
        <mxCell id="0" />
        <mxCell id="1" parent="0" />
        <mxCell id="5IaU9lcffaFXkDmT9sVI-7" value="Arguments" style="rounded=0;whiteSpace=wrap;html=1;fillColor=none;dashed=1;labelPosition=center;verticalLabelPosition=top;align=center;verticalAlign=bottom;fontFamily=Lucida Console;" vertex="1" parent="1">
          <mxGeometry x="150" y="400" width="170" height="430" as="geometry" />
        </mxCell>
        <mxCell id="5IaU9lcffaFXkDmT9sVI-12" value="Output" style="rounded=0;whiteSpace=wrap;html=1;fillColor=none;dashed=1;labelPosition=center;verticalLabelPosition=top;align=center;verticalAlign=bottom;fontFamily=Lucida Console;" vertex="1" parent="1">
          <mxGeometry x="530" y="450" width="130" height="160" as="geometry" />
        </mxCell>
        <mxCell id="5IaU9lcffaFXkDmT9sVI-3" value="Not yet implemented" style="rounded=0;whiteSpace=wrap;html=1;fillColor=none;dashed=1;labelPosition=center;verticalLabelPosition=top;align=center;verticalAlign=bottom;fontFamily=Lucida Console;" vertex="1" parent="1">
          <mxGeometry x="150" y="850" width="170" height="70" as="geometry" />
        </mxCell>
        <mxCell id="5IaU9lcffaFXkDmT9sVI-19" style="edgeStyle=orthogonalEdgeStyle;rounded=0;orthogonalLoop=1;jettySize=auto;html=1;exitX=0.5;exitY=1;exitDx=0;exitDy=0;entryX=0.5;entryY=0;entryDx=0;entryDy=0;fontFamily=Lucida Console;curved=1;dashed=1;dashPattern=12 12;" edge="1" parent="1" source="veaWCtDNVJpHXdZxBmAT-1" target="5IaU9lcffaFXkDmT9sVI-18">
          <mxGeometry relative="1" as="geometry" />
        </mxCell>
        <mxCell id="veaWCtDNVJpHXdZxBmAT-1" value="LVGL UI generator&lt;br&gt;binary" style="shape=process;whiteSpace=wrap;html=1;backgroundOutline=1;fontFamily=Lucida Console;" vertex="1" parent="1">
          <mxGeometry x="370" y="465" width="120" height="60" as="geometry" />
        </mxCell>
        <mxCell id="veaWCtDNVJpHXdZxBmAT-10" style="edgeStyle=orthogonalEdgeStyle;rounded=0;orthogonalLoop=1;jettySize=auto;html=1;exitX=1;exitY=0.5;exitDx=0;exitDy=0;entryX=0;entryY=0.5;entryDx=0;entryDy=0;curved=1;fontFamily=Lucida Console;" edge="1" parent="1" source="veaWCtDNVJpHXdZxBmAT-3" target="veaWCtDNVJpHXdZxBmAT-1">
          <mxGeometry relative="1" as="geometry" />
        </mxCell>
        <mxCell id="veaWCtDNVJpHXdZxBmAT-3" value="Widget list" style="shape=parallelogram;html=1;strokeWidth=2;perimeter=parallelogramPerimeter;whiteSpace=wrap;rounded=1;arcSize=12;size=0.23;fontFamily=Lucida Console;" vertex="1" parent="1">
          <mxGeometry x="160" y="470" width="160" height="50" as="geometry" />
        </mxCell>
        <mxCell id="veaWCtDNVJpHXdZxBmAT-12" style="edgeStyle=orthogonalEdgeStyle;rounded=0;orthogonalLoop=1;jettySize=auto;html=1;exitX=1;exitY=0.5;exitDx=0;exitDy=0;entryX=0;entryY=0.5;entryDx=0;entryDy=0;curved=1;fontFamily=Lucida Console;" edge="1" parent="1" source="veaWCtDNVJpHXdZxBmAT-5" target="veaWCtDNVJpHXdZxBmAT-1">
          <mxGeometry relative="1" as="geometry" />
        </mxCell>
        <mxCell id="veaWCtDNVJpHXdZxBmAT-5" value="Width" style="shape=parallelogram;html=1;strokeWidth=2;perimeter=parallelogramPerimeter;whiteSpace=wrap;rounded=1;arcSize=12;size=0.23;fontFamily=Lucida Console;" vertex="1" parent="1">
          <mxGeometry x="160" y="590" width="160" height="50" as="geometry" />
        </mxCell>
        <mxCell id="veaWCtDNVJpHXdZxBmAT-13" style="edgeStyle=orthogonalEdgeStyle;rounded=0;orthogonalLoop=1;jettySize=auto;html=1;exitX=1;exitY=0.5;exitDx=0;exitDy=0;entryX=0;entryY=0.5;entryDx=0;entryDy=0;curved=1;fontFamily=Lucida Console;" edge="1" parent="1" source="veaWCtDNVJpHXdZxBmAT-6" target="veaWCtDNVJpHXdZxBmAT-1">
          <mxGeometry relative="1" as="geometry" />
        </mxCell>
        <mxCell id="veaWCtDNVJpHXdZxBmAT-6" value="Height" style="shape=parallelogram;html=1;strokeWidth=2;perimeter=parallelogramPerimeter;whiteSpace=wrap;rounded=1;arcSize=12;size=0.23;fontFamily=Lucida Console;" vertex="1" parent="1">
          <mxGeometry x="160" y="650" width="160" height="50" as="geometry" />
        </mxCell>
        <mxCell id="veaWCtDNVJpHXdZxBmAT-11" style="edgeStyle=orthogonalEdgeStyle;rounded=0;orthogonalLoop=1;jettySize=auto;html=1;exitX=1;exitY=0.5;exitDx=0;exitDy=0;entryX=0;entryY=0.5;entryDx=0;entryDy=0;curved=1;fontFamily=Lucida Console;" edge="1" parent="1" source="veaWCtDNVJpHXdZxBmAT-7" target="veaWCtDNVJpHXdZxBmAT-1">
          <mxGeometry relative="1" as="geometry">
            <mxPoint x="420" y="569.9999999999998" as="targetPoint" />
          </mxGeometry>
        </mxCell>
        <mxCell id="veaWCtDNVJpHXdZxBmAT-7" value="Widget count" style="shape=parallelogram;html=1;strokeWidth=2;perimeter=parallelogramPerimeter;whiteSpace=wrap;rounded=1;arcSize=12;size=0.23;fontFamily=Lucida Console;" vertex="1" parent="1">
          <mxGeometry x="160" y="530" width="160" height="50" as="geometry" />
        </mxCell>
        <mxCell id="veaWCtDNVJpHXdZxBmAT-14" style="edgeStyle=orthogonalEdgeStyle;rounded=0;orthogonalLoop=1;jettySize=auto;html=1;exitX=1;exitY=0.5;exitDx=0;exitDy=0;entryX=0;entryY=0.5;entryDx=0;entryDy=0;curved=1;fontFamily=Lucida Console;" edge="1" parent="1" source="veaWCtDNVJpHXdZxBmAT-8" target="veaWCtDNVJpHXdZxBmAT-1">
          <mxGeometry relative="1" as="geometry" />
        </mxCell>
        <mxCell id="veaWCtDNVJpHXdZxBmAT-8" value="Update delay&lt;br&gt;(d x 1000ms)" style="shape=parallelogram;html=1;strokeWidth=2;perimeter=parallelogramPerimeter;whiteSpace=wrap;rounded=1;arcSize=12;size=0.23;fontFamily=Lucida Console;" vertex="1" parent="1">
          <mxGeometry x="160" y="710" width="160" height="50" as="geometry" />
        </mxCell>
        <mxCell id="veaWCtDNVJpHXdZxBmAT-15" style="edgeStyle=orthogonalEdgeStyle;rounded=0;orthogonalLoop=1;jettySize=auto;html=1;exitX=1;exitY=0.5;exitDx=0;exitDy=0;entryX=0;entryY=0.5;entryDx=0;entryDy=0;curved=1;fontFamily=Lucida Console;" edge="1" parent="1" source="veaWCtDNVJpHXdZxBmAT-9" target="veaWCtDNVJpHXdZxBmAT-1">
          <mxGeometry relative="1" as="geometry" />
        </mxCell>
        <mxCell id="veaWCtDNVJpHXdZxBmAT-9" value="Layout:&lt;br&gt;none,flex,grid" style="shape=parallelogram;html=1;strokeWidth=2;perimeter=parallelogramPerimeter;whiteSpace=wrap;rounded=1;arcSize=12;size=0.23;fontFamily=Lucida Console;" vertex="1" parent="1">
          <mxGeometry x="160" y="770" width="160" height="50" as="geometry" />
        </mxCell>
        <mxCell id="5IaU9lcffaFXkDmT9sVI-2" style="edgeStyle=orthogonalEdgeStyle;rounded=0;orthogonalLoop=1;jettySize=auto;html=1;exitX=1;exitY=0.5;exitDx=0;exitDy=0;entryX=0;entryY=0.5;entryDx=0;entryDy=0;curved=1;fontFamily=Lucida Console;" edge="1" parent="1" source="5IaU9lcffaFXkDmT9sVI-1" target="veaWCtDNVJpHXdZxBmAT-1">
          <mxGeometry relative="1" as="geometry" />
        </mxCell>
        <mxCell id="5IaU9lcffaFXkDmT9sVI-1" value="Design file" style="shape=parallelogram;html=1;strokeWidth=2;perimeter=parallelogramPerimeter;whiteSpace=wrap;rounded=1;arcSize=12;size=0.23;fontFamily=Lucida Console;" vertex="1" parent="1">
          <mxGeometry x="160" y="860" width="160" height="50" as="geometry" />
        </mxCell>
        <mxCell id="5IaU9lcffaFXkDmT9sVI-6" style="edgeStyle=orthogonalEdgeStyle;rounded=0;orthogonalLoop=1;jettySize=auto;html=1;exitX=1;exitY=0.5;exitDx=0;exitDy=0;entryX=0;entryY=0.5;entryDx=0;entryDy=0;curved=1;fontFamily=Lucida Console;" edge="1" parent="1" source="5IaU9lcffaFXkDmT9sVI-5" target="veaWCtDNVJpHXdZxBmAT-1">
          <mxGeometry relative="1" as="geometry" />
        </mxCell>
        <mxCell id="5IaU9lcffaFXkDmT9sVI-5" value="Target&lt;br&gt;directory" style="shape=parallelogram;html=1;strokeWidth=2;perimeter=parallelogramPerimeter;whiteSpace=wrap;rounded=1;arcSize=12;size=0.23;fontFamily=Lucida Console;" vertex="1" parent="1">
          <mxGeometry x="160" y="410" width="160" height="50" as="geometry" />
        </mxCell>
        <mxCell id="5IaU9lcffaFXkDmT9sVI-8" value="Label textfile" style="strokeWidth=2;html=1;shape=mxgraph.flowchart.document2;whiteSpace=wrap;size=0.25;fontFamily=Lucida Console;" vertex="1" parent="1">
          <mxGeometry x="550" y="540" width="100" height="60" as="geometry" />
        </mxCell>
        <mxCell id="5IaU9lcffaFXkDmT9sVI-9" value="UI Screenshot" style="strokeWidth=2;html=1;shape=mxgraph.flowchart.document2;whiteSpace=wrap;size=0.25;fontFamily=Lucida Console;" vertex="1" parent="1">
          <mxGeometry x="550" y="465" width="100" height="60" as="geometry" />
        </mxCell>
        <mxCell id="5IaU9lcffaFXkDmT9sVI-10" style="edgeStyle=orthogonalEdgeStyle;rounded=0;orthogonalLoop=1;jettySize=auto;html=1;exitX=1;exitY=0.5;exitDx=0;exitDy=0;entryX=0;entryY=0.5;entryDx=0;entryDy=0;entryPerimeter=0;curved=1;fontFamily=Lucida Console;" edge="1" parent="1" source="veaWCtDNVJpHXdZxBmAT-1" target="5IaU9lcffaFXkDmT9sVI-9">
          <mxGeometry relative="1" as="geometry" />
        </mxCell>
        <mxCell id="5IaU9lcffaFXkDmT9sVI-11" style="edgeStyle=orthogonalEdgeStyle;rounded=0;orthogonalLoop=1;jettySize=auto;html=1;exitX=1;exitY=0.5;exitDx=0;exitDy=0;entryX=0;entryY=0.5;entryDx=0;entryDy=0;entryPerimeter=0;curved=1;fontFamily=Lucida Console;" edge="1" parent="1" source="veaWCtDNVJpHXdZxBmAT-1" target="5IaU9lcffaFXkDmT9sVI-8">
          <mxGeometry relative="1" as="geometry" />
        </mxCell>
        <mxCell id="5IaU9lcffaFXkDmT9sVI-15" value="" style="endArrow=none;dashed=1;html=1;dashPattern=1 3;strokeWidth=2;rounded=0;exitX=1;exitY=0.5;exitDx=0;exitDy=0;exitPerimeter=0;entryX=0;entryY=0.5;entryDx=0;entryDy=0;fontFamily=Lucida Console;" edge="1" parent="1" source="5IaU9lcffaFXkDmT9sVI-9" target="5IaU9lcffaFXkDmT9sVI-13">
          <mxGeometry width="50" height="50" relative="1" as="geometry">
            <mxPoint x="730" y="540" as="sourcePoint" />
            <mxPoint x="780" y="490" as="targetPoint" />
          </mxGeometry>
        </mxCell>
        <mxCell id="5IaU9lcffaFXkDmT9sVI-16" value="" style="endArrow=none;dashed=1;html=1;dashPattern=1 3;strokeWidth=2;rounded=0;exitX=1;exitY=0.5;exitDx=0;exitDy=0;exitPerimeter=0;entryX=0;entryY=0.25;entryDx=0;entryDy=0;fontFamily=Lucida Console;" edge="1" parent="1" source="5IaU9lcffaFXkDmT9sVI-8" target="5IaU9lcffaFXkDmT9sVI-14">
          <mxGeometry width="50" height="50" relative="1" as="geometry">
            <mxPoint x="660" y="490" as="sourcePoint" />
            <mxPoint x="700" y="417" as="targetPoint" />
          </mxGeometry>
        </mxCell>
        <mxCell id="5IaU9lcffaFXkDmT9sVI-18" value="&lt;h1&gt;LVGL UI Generator&lt;br&gt;&lt;/h1&gt;&lt;p&gt;Produces one UI screenshot with a corresponding label file.&lt;br&gt;It currently creates randomly chosen widgets from the provided list in the provided layout.&lt;br&gt;&lt;i&gt;(none, flex or grid)&lt;/i&gt;&lt;/p&gt;&lt;p&gt;This is done by creating an LVGL window with fixed size and placing the widgets inside a container of the desired image size. Then a screenshot of the container is made, producing an image with the desired size.&lt;br&gt;The label file is created by using the LVGL information during the generation process.&lt;br&gt;&lt;/p&gt;" style="text;html=1;strokeColor=default;fillColor=none;spacing=5;spacingTop=-20;whiteSpace=wrap;overflow=hidden;rounded=0;dashed=1;dashPattern=12 12;fontFamily=Lucida Console;" vertex="1" parent="1">
          <mxGeometry x="360" y="665" width="320" height="265" as="geometry" />
        </mxCell>
        <mxCell id="5IaU9lcffaFXkDmT9sVI-22" value="" style="group" vertex="1" connectable="0" parent="1">
          <mxGeometry x="710" y="600" width="207" height="170" as="geometry" />
        </mxCell>
        <mxCell id="5IaU9lcffaFXkDmT9sVI-14" value="&lt;br&gt;lv_switch 138 68 52 30&lt;br&gt;lv_checkbox 117 333 105 20&lt;br&gt;lv_switch 374 397 52 30&lt;br&gt;lv_label 327 105 39 16&lt;br&gt;lv_checkbox 269 138 105 20&lt;br&gt;lv_label 378 70 39 16&lt;br&gt;lv_bar 376 90 260 13&lt;br&gt;lv_checkbox 280 288 105 20&lt;br&gt;lv_switch 388 370 52 30&lt;br&gt;lv_slider 160 339 260 13" style="text;html=1;strokeColor=default;fillColor=none;spacing=5;spacingTop=-20;whiteSpace=wrap;overflow=hidden;rounded=0;fontFamily=Lucida Console;" vertex="1" parent="5IaU9lcffaFXkDmT9sVI-22">
          <mxGeometry y="20" width="207" height="150" as="geometry" />
        </mxCell>
        <mxCell id="5IaU9lcffaFXkDmT9sVI-20" value="random_ui.txt" style="text;html=1;strokeColor=none;fillColor=none;align=center;verticalAlign=middle;whiteSpace=wrap;rounded=0;" vertex="1" parent="5IaU9lcffaFXkDmT9sVI-22">
          <mxGeometry width="80" height="20" as="geometry" />
        </mxCell>
        <mxCell id="5IaU9lcffaFXkDmT9sVI-23" value="" style="group" vertex="1" connectable="0" parent="1">
          <mxGeometry x="690" y="347" width="236" height="253" as="geometry" />
        </mxCell>
        <mxCell id="5IaU9lcffaFXkDmT9sVI-13" value="" style="shape=image;verticalLabelPosition=bottom;labelBackgroundColor=default;verticalAlign=top;aspect=fixed;imageAspect=0;image=data:image/png,iVBORw0KGgoAAAANSUhEUgAAAaAAAAGgCAYAAADsNrNZAAAgAElEQVR4Xu2dC5BcxXnvv9nV7uq5Eg/x0AsQzk1sJJArBjtIsbiVxL7ggKps54J8EThObIkAxnaVgWtwUpWUcAFV4SFAErEdGwVJSWxXJF8JY+deHgZXDNjCksB22QhZEgIEAmlXr11pZ25/PduzZ2bn0TPTs3vOzK+pQbsz3V93//ps/+fr/k6flIhkzGtY+t3vfieZTNGPimXnPQhAAAIQgMAwAqlUSs4666yiZFKFArRz5868jCpCaoAEAQhAAAIQ8CVQTDvOPvvsvOJ5AhQVn/b2dunu7paxY8dKZ2enLYQY+aInHwQgAIHWIxDViP7+fjl27Jj09PTIwMBADkZUhHICFBWfKVOmyOTJk1uPHj2GAAQgAIHgBA4ePCgHDhwYJkJWgKLic/rpp1uvB48n+BhgEAIQgEBLEYh6ROoNvfnmm3kilCdAeD4tdW3QWQhAAAIjSiDqCelSXMp4PzbUTfd8ZsyYUbYxUTVjP2hEx43KIAABCMSSQLW6sGfPntyeUE6ATjrpJBt0gLDEcoxpFAQgAIFEE3DaokEJ7777ru2LFSD9YNq0ablot0T3ksZDAAIQgEBsCWh03N69e+3tPTkPqNSNQrHtBQ2DAAQgAIFEEtCDDnIekCrRrFmzEtkRGg0BCEAAAskisGvXrux2jwtCUAGKnnjAXlCyBpTWQgACEIgjgUIt0d9VgHIekP7AElwch442QQACEGg+AnlLcAhQ8w0wPYIABCAQVwIVBYgluLgOHe2CAAQgkBwCxbSkogAlp3u0FAIQgAAEkkQAAUrSaNFWCEAAAk1EAAFqosGkKxCAAASSRAABStJo0VYIQAACTUQAAWqiwaQrEIAABJJEAAFK0mjRVghAAAJNRAABaqLBpCsQgAAEkkQAAUrSaNFWCEAAAk1EAAFqosGkKxCAAASSRAABStJo0VYIQAACTUQAAWqiwaQrEIAABJJEAAFK0mjRVghAAAJNRAABaqLBpCsQgAAEkkQAAUrSaNFWCEAAAk1EAAFqosGkKxCAAASSRAABStJo0VYIQAACTUQAAWqiwaQrEIAABJJEAAFK0mjRVghAAAJNRAABaqLBpCsQgAAEkkQAAUrSaNFWCEAAAk1EAAFqosGkKxCAAASSRAABStJo0VYIQAACTUQAAWqiwaQrEIAABJJEAAFK0mjRVghAAAJNRAABaqLBpCsQgAAEkkQAAUrSaNFWCEAAAk1EAAFqosGkKxCAAASSRAABStJo0VYIQAACTUQAAWqiwaQrEIAABJJEAAFK0mjRVghAAAJNRAABaqLBpCsQgAAEkkQAAUrSaNFWCEAAAk1EAAFqosGkKxCAAASSRAABStJohW5rxhhMhTOaloy0OYMR25nBn11V9te8utMimbbhbdE8mgK2MVxvsQQBCNRLAAGql2BMy+fm98AiE7q7GaNOKatGRoBIEIBASxFAgFpkuDOZAentb5PXetOy55BIz7EB2Xs4Jel02ghAWBdD9SSjJjPGs0m1yYxJKenubJPpk0SmTWyXyWMHoZcTx7T5sM21y9hBoFrkSqWbrUQAAWqS0S7mSWTfS8mOA2nZ8oYRnN5MVhjsqpb52fw/uxSW/TlEcnaH2TJ1pNLmU1PN9IkpmXdau5x7Ml5PCObYgEBSCSBASR25Iu0udCj29AzIT/em5bVDRmBUjMx8/3vdbXKmeU0dnzIeycgIgHpd+45mZG9PWn777pDHpUJ00Yx2mTlxZNrRRENNVyDQFAQQoKYYxqFOOBF6bu8J+S8jPurhdHeJXHB6h7xvqsiJY0fl2LFj0t/fb1/hl+BMGIJ6VDbywDhXxgPr7OyUjo4OGTdunLR3jZVfvp2RLfvScqjfrNKZfBdNb5MPntGevxQY872rJrts6A4ERoUAAjQq2BtTqVty++6vjluvR9XnQ2d2yNypaek7fEgOHTokAwMDWW+oARv/ub0fu1+j+zZDSYVI621r75BJE8dL14Ru2bpvICuS5jP1hj7xBx2D5fCIGnOFYBUC8SKAAMVrPOpuzaMvHZd3jmSka0xKPv77Y2RiW5+8/fY+IzwupjlbhQ08MBv9bk+o3oqrtdfe3i6nnnqqHEp3yXd/fUL6TPumjk3J4jkqQiQIQKAVCCBASRpluyxVIiLMfPbdX2c9n8mdKfnYe8bImP6DcvDgwbwe6sSvS2H60mUxfbl04sQJuyynS3RHjhyx3lIxL8Z5M9Wgc96ZK5O9YygtkydPlhOdk2XTb0/Iwf6MiZhrs8KZ9aDwhKphTF4IJI0AApSwESu1NaJLWc+Z19j2ATOBd4oc2S+HDx/OeTsqAKeccopMnDjRu8e6ZPfOO+/YpbNCAfE2UiGjitD4CSY+e/wp8j31hE5k5MIZbWbpUEWIBAEINDMBBChpoztMgUyUW696PydsTxa/Vz2fd6Wnx9zsM5jGdnbJ1NNPk7a28h5FMZHRIIV9+/ZJX19fUFKFdTlPaO3Lx22I+Md/v2PEovSCdgxjEICANwEEyBtVfDIWapCKj4Zc/9F0E3BwUp8VDJcmTZokJ598cp4HU0xoKnk46gn19hqlC5Ty6ku1m3C4ATnjjDNky/4O48mdMDespuSTNiiBBAEINCsBBCjhI/vKuwOy6ZUBmWhW3a4y3s87b+61odU6wXd1ddlJPVR64403avaEdN8obSIedMmtVNL9qVNOnybrfnnChmhffm6HnHNSNnou9GkNoZhgBwIQqJ0AAlQ7uxEtOeT1DG7ODx5V40Ku/3iWmaw7h4IOdMKeMWOGOc2myCGfNbZchW337t01li5fzAUldHd3y+/6u+Xp3QOR0OyGVIlRCEBglAkgQKM8ADVVPyg+PWZb5lvbjKtg0tL3d8pbr+8RjWRT8ckGHIw33oPxOgKe9aaBCfv377d1NsIzseHZZ86Qh7dk+3Xt+Z0mqq8mShSCAARiTgABivkAlW5eWn5tThR4fOeAnDslJf992nF56623bHadxNX7sSJhXtWc8lZOVNxne/bsyYVo26W1oAeammOCpp4iT+ztkB3vZuRPzm4zJzgQEZfYy5SGQ6AMAQQowZfHf756XF7en5EPzzTnqY05YE860OQCDxrVtdABCYXt1PbvOj7ZLsO975SU/Ok5BCM0aiyx2xoErrnmGtHl7RUrVtS9IuJsPfDAA3XDQ4DqRjh6Btz+zyfMjZvth4dCpadOnSrjx49vWMP0JlXnbTWiEg2eGJhwmg0tJxquEYSxmTQCd911l6xbt062bNlSsunlVi9UNPSL3YMPPphdGakjsAcBStrV06D23v9Cdp/k8x/olF27duUOAJ0+fbqMGdO4ZSvdZ9q7d2+uvtDd02W9WbNmSbR/oevAHgSSRMBHgAr7ExWZekUjamvJkiXWm3JiVg9HPKB66I1y2egE7QZSm3TWWWc1vGXR+hpRmfYBAWoEWWwmkUAxAYqKwrPPPiuaZ9u2bfZ4q/nz58vXvvY16/VocgKkX+zUkzpw4ICcf/75snz5cpkzZ04eEleXHuM1d+5cufnmm609l9SW1qHLefUmBKhegqNYHgEaRfhUDYERJFDJA1JRUJE477zzzCkoPVaMVGweeeSRnAA988wz9j0VFBWQ1atXi763cePGnAjdcMMNsn37dptH827evFlWrVola9asyYnQtddea4WNPaARvADiWBVLcHEcFdoEgfAE7r77blm7dm3ZPaBoreoR6VLZjh07cgKk3tFTTz1ll89cWrRokcycOdOKiS7jX3LJJTaPvueSipna27BhQ543hQCFH+dEWSQIIVHDRWMhUDOBSh6QW4JTEXFJl9CcmJTaA1IvSD0cDW5Qb0c9IPWOost77kT9qJipiCFANQ9ncxQkDLs5xpFeQKASgXICpEtu73//+2Xp0qWyePFiKyDq7agH9PTTT9t7AkuFYUcFaNOmTXLjjTda0VIbhcl5TvUGNETtsgdUaeRj+zk3osZ2aGgYBAITUAFav369/PznPx9m2S23vfjii7nlNX1PheLJJ5+0y2n6c6UlOD1ma+HChXLLLbdYMXNJBS66bIcABR7cxJnjKJ7EDRkNhkA9BJwHVGzZSyPV5s2blxMODSLQpTRdjosuwUWDELQtKmiFQQi33XabjZJbtmyZDTpQUbrzzjttxNuCBQtsFxCgekYyoWU5jDShA0ezIRCAgArQypUr7SkGhU8kVpFRsVHx0H81ek2X4lQ4ogKknpAuranAuBDrYmHYuiynedSW5ldbGhXnEgIUYECbxQSPY2iWkaQfEIgPAReEUM+JCT69YQ/Ih1LM8tT7QLpi3al0oYU+/40H0sXsoqI5iSdQ6W84jh1EgOI4KuXaxCO5kzZitBcCo0IgCYKEAI3KpVF7paUer/Bfe9PmUdZpGds+IB//ffMAnSP75fDhw7Yit2aszwiaMGGC92m4erq2ej56ITfqYtYnpI6fYI4LGX+KfM8cPtp3IiMXzmiTD53ZuLPsaqdPSQi0NoFi80A9cwMClKTryarP4BNRC9ttPvvur4/La4cy5gFuKfnYe8bImP6hJ6S67PqsoHHjxtlXR0eHPbTUPbBODxnt7++XY8eOiZ54PTAwkFeLE7LCTVAfhIUXqXsCqm5ynuicLJt+e0IO9mdkxqQ2I6AqPiX66VMZeSDQIgTqmfx9EWkd7ousbxnffAiQL6mE5Hv0pePyzpGMdI1J2Yl8YlufvP32PiMm2YvIJSs6JpzbPDA1SKrWnn3y6amnyqF0l33sQp9p39SxKVk8h2f/BBmQap9EGKRSjECgOgIIUHW8Yp3bfRtyR/RIKmOWsjpk7tS09B0+ZB9Yp15NNp/OUG1B+6Mms4KmdtWDyRc8rbetvUMmmUeFd03olq37BkSXDlW8pk9MySf+QMUHz6eWQfH/JgzfWvhSpjEEEKDGcB01q+6L73N7T2Qnd/NGd5fIBad3mEdbi5w4dtQuselSm77CPk47Kz4qblG3vbOz0y736bJfe9dY+aV5lPiWfWk5ZB5npPkumt4mHzyjPX9vim/wNV5DTvgjXy4GPV231FqjYYpBIDgBBCg40tEzWDhn7+kZkJ8aEdJ9IfsN2cxJv9fdJmea19Txxusw+y0jkV7rTcu+oxnZ25OW376b9Xg0qddz0QzzOPGJI9OOkejraNdRyRMaPERjtJtJ/RCwBBCgJrkQii2ruclox4G0bHljQPb2Du35pMT8LOauaqta2Z9DJGd3mC1TRyptPjXVqPDMO61dzj0Z4QnB3NfG64cGZP1L/XL/z07YItFgErwjX4rkq4VA9MZWd+3pv09ctj97Le7cudPuUo/E0zRr6QBl6iOQyQxIb3+bqDey55BIzzEjSIdNEHR6yCOpr4ah0rm9oIxZDjJu14xJKenubDMel8i0ie0yeexg3nLLbHlf1dm3qHdsvvLEEVn/q3QunN6MulksHQpMcUum9dZDeQgUJ5Bdmo8mveae/Ng7CFAzXjK5uT3meymNCohoxjH17VPhkP/vJ4/J+pePR7weFR8jRoNLoZWW7XzrJR8EqiWAB1QtsWbKH1iczJSmIQhZQhHb9jYC87Zb5Btc9Rt6QyPfMmY5rnAV0H1hCrM62Ewj590X3Xdb8OgRk9/4O8YLTqXazc/RQIUhr8jbKBkhEIgAAhQIJGYgEEcC9z53TO57Ycj70TZml9/MftygIGW/OOQvj8SxL7Sp+QggQM03pvQIAjkH9JyHevPC2/OX29z9WsPv2wIhBEaCAAI0EpSpAwIjSCC6sjp7pYk4GUyFkUj6ti7JZT0h1jlHcIioapAAAsSlAIEmJuAEKCs++fs/Q8KDB9TEl0Csu4YAxXp4aBwEqiWgQQXZp2ZquuenR+19P+3m97TZ6dHoNxeC4DyiwpDsamskPwRqJYAA1UqOchBIAAGNgpu/9pi513go2i3q7xCCnYBBbOImIkBNPLh0DQJKQO8D+tdfZk8/GEouLJu9H66S0SOAAI0ee2qGQMMIZAMRhk6QuPWJo/Jvv8qehK7LcQN2TygrPnhBDRsGDFcggABxiUCgRQi8bs4CXPer47Li+b7cnlDhYzOSjMJHSMs90bPwOKKoQCuXYpGC0TLRBzY6jqXa5NPWJI9FYdstpzYTBJPORly6/iNAzTTK9AUCZQi0wqQXso/V2Komb3SIai3XLBc6p2E3y0jSDwhAAAIJI2AOwTaupXkWGKdhJ2zkaC4EqiFQ5Fy93LfvwGcCVtOsOOZ1XK655hrp7u6WBx54oKpmFvNqarVVVcUJzIwHlMBBo8kQqIdAMy/7RPt21113ybp162TLli014QopGiFt1dSZmBZCgGI6MDQLAo0hkI2Ma8aDxguFdaQEyEfQEaDs1VzICgFqzF85ViEQSwJutc1n0oxlB6poVCUBevbZZ0XzbNu2TSZPnizz58+XO+64wy67aXKiMWvWLOtJHTx4UObOnSvLly+XOXPm5LXE1eXy3HzzzdaeSwhQ8YHbtWuXUSUTGcceUBVXNlkhAIHYE6gkQEuWLJEFCxZYMVHhuPPOO+0ToR955JGcAD3zzDOiAqSCoiK1evVq0fc2btyYE6EbbrhBtm/fbvNo3s2bN8uqVatkzZo1OREqFKBW+AJQ7gJx/ccDiv2fEQ2EAAR8CNS7BKcekYrSjh07cgK0detWefrpp3NekX6waNEimTlzpg1O2L17tyxcuFCeeuop+55LKn5qb8OGDXneVLUBDT79TnIeBCjJo0fbIQCBkgQqeUBuCc4uAw0m9YScmJTyWtQLUg9HgxvU21EPSL2jaFI7mqJiVktEXbMPLwLU7CNM/yDQggTUG7r77rtLRsH19PTIBRdcINddd50sXrzYCojuBakHVEqAHMZiAqRlnAi5O/01f+F+0ooVK3j2UuR6RIBa8I+TLkOgWQn4hmG75bYXX3wxJxLuvagAqSjp705IlFuxJbhbbrlFli5dmsOqAhctUywIodX3gRQWAtSsf4n0CwItTMB5QGvXrpUHH3xwGAmNZps3b5444XjppZfk+uuvF12O0z2fGTNm2Ci4aBCCGtFoOBWqaBDCV77yFVm/fr0sW7bMBjWoDQ1o0P0eFwlHFFzxixEBauE/UroOgWYmoEtwK1euLNpF9WpUKFQ8NJBAo9d0KU6FI+oBaWCBLq2pkPX29trIt2Jh2LonpCKkNjW/2tKoOJcQIASomf/W6BsEWpoAy1nJHH48oGSOG62GAAQqEHCPSij2GAXgxYMAAhSPcaAVEIAABFqOAALUckNOhyEAAQjEgwACFI9xoBUQgAAEWo4AAtRyQ06HIQABCMSDAAIUj3GgFRCAAARajgAC1HJDTochAAEIxIMAAhSPcaAVEIAABFqOAALUckNOhyEAAQjEgwACFI9xoBUQgAAEWo4AAtRyQ06HIQABCMSDAAIUj3GgFRCAAARajgAC1HJDTochAAEIxIMAAhSPcaAVEIAABFqOAALUckNOhyEAAQjEgwACFI9xoBUQgAAEWo4AAtRyQ06HIQABCMSDAAIUj3GgFS1AwD610/z33Otp+ebWPvnhqwOSSZmOp837Kf2hfPqzs9vkLy8YKx+aJpIxBX3KVLIZ+vNGPZm0UXa1/4W2G1lXaN5Jt4cAJX0EaX9iCOjEdv8LJ+Tenx2XVEYnvgErImmVpUy6bD+iYnPTBzrkpgu7xJiwSaUr7pNm3NuXmIuoyRqKADXZgNKd+BJ4bu8JufI/jtoGfskIyKcv6JRJnX7t7e0X+eet/XLv8+YHk9YuGm88obZcYR4/7cexUq5iHBHPStRq/xwBqp0dJSFQFYHPPnZE/u/OtHzhog75/B92VVXWZV5hBOieF/pFl+NWXzq+JhujVWikJvKRqme0ODZTvQhQM40mfYktAV0um73qiNnvGZBf/NVE6e6qvOdTrDPqCZ3/9V67dLfjuokmS7ru/aBrrrlGuru75YEHHmg4v1rqqqWM60gtYuTKFP7bcDgtWAEC1IKDTpdHh8A5D0WFI9uGWpbOZq88ZPeNdl43wasjDz/8sGzatEm2bdtm8y9YsECWLl0q8+fPt7/XM8F7NSCSqZa6ailTbbuK5a9FvELU20o2EKBWGm36OqoEiglQLQ1SAdLJ8dW/mVSx+KJFi6zwLF68WObOnWvzP/PMM7J582br8Vx22WWjIkArVqzwjuIbLQGqCJcMdRNAgOpGiAEI+BFQ4dCUXTobTLo2V+Vq3DkPHTaTdybfTpEm3HDDDfLss8/Kxo0bZebMmXk5XnrpJTnvvPPse26CnzVrlqxbt04OHjxovaTly5cPK3fXXXfJ+vXr5cCBA1bQvvzlL9u80bR69WprZ9euXaI2ly1bJldddVVeXW65r6enR5YsWWI/27BhQ1GQxdqndd9xxx25PriC5epWFlqX8pgzZ44tovlXrVolTz/9tEyaVFnQ/UaaXL4EECBfUuSDQJ0E6veANFS7TZydV5ZNKOlF6MQ+b948O0m7yb9Y89WTuvbaa61XpJO6Ls1pWZ2UNT355JO5Yipo27dvl1tuucUK02OPPSYrV66UNWvW5JbzbrvtNis+t956qxUHnfTV1r/8y7/IxRdfnOdt9fb2ytVXX11UfKJLkypA2j4Vs5tvvtnuV+myotpW0XJionWrOGoefc/Vre3VfmnSPPq+9mv37t3y4Q9/2LbNLUfWOcQUr5IAAlQlMLJDoFYCKhyafJbOytXhI2Tu2/5TTz01zIsptK0TvC7TbdmyJfeRCs0VV1whrrxO1gsXLsz97jKqR+SEwOVxS3suj77vPDDnzagwqjei3pZ6JCoqpZJrn7Ylmk+XF9Wu1leqbvVw7rzzTtmxY0fO/CWXXGIFR9ut/6qn5xL7PrVe3bWVQ4Bq40YpCFRNwEc4fIz62KlWgIpFwc2ePTvn3eiekXpAkydPtl6X81BUQDTpBK+BDjfeeGPeZF9M7PQ9XcJTkSv00IoJQHQPKPq5Wz5T4XTtiwqN1uM8weiym9Z7+eWXy1lnnZXn4SE+Pldf2DwIUFieWINASQI+wuGDT+3oET47rxvasyicPH2X4LS+Upv8KkDOm3ETvC5dTZkyZVgzVcA0jwrQK6+8Muxz177ocpouqannVejZFBOtYgJZTIC07uipEc4zigqQE2cV00p1+4wHeWongADVzo6SEKiCQFpmrzwSiV7L7ufY5BuIMJhvKApOw7CHTkMobEy5IAT1AtzeiYqCbsA/+OCDeSaiAuQm8uh+ivMw3LKY5tHlLY1w0+g6lwqX4DQ4QQVBhUI9ERWCwgCEqKDqHtXWrVuHiYUuEaqIlVuC0/0nXSZ0npEKsy4lamCECpGmRx55pIpxJGtIAghQSJrYgkAZAufYG1E1fHpcWeEoD1GF7JjJkq4YBecizFwY9vnnn28F0DcMOypA2qbbb79d1q5daydv3TtRYdH9FRUAt4kfDQTQoAatS0XABSoUeltur6lQ2KIMtIyKhe73aICBJg02UNtRz8a1T22VCkJQW050omLkghS4gEeWAAI0sryprYUJ2CCEtnbZsWx8XuR1NQ6Q4ptdZTBDNDRZy/veiKoCpF7RpZdemhs1taWTv04c6rno/UVOFFymasKwtYzzUqJiUihA6umop+XCxFXcNHjAeXE+dbslu+iym0byXX/99TkhYx9oZP9AEaCR5U1tLUzA7QG9+JkJ9igeX+GJIuvpy8gF38jeT+Si6Wqxk5RhQBCSMlK1tRMBqo0bpSBQNYGlm4/Kj343IF+4sFM+/wHPY7ALalnxQp/c8/xx+cjZY2TVpWNj/xiGqiFRoKUIIEAtNdx0djQJ/NfetHxqg9kHMklF6NNzO7wPJVXP51vbjss9z/XZzfv1i8bKRdPGGEuRYIbR7Bx1Q6AGAghQDdAoAoHqCWSF4r7n++S+F45X7bno4aNtZtFOn4T6RX2cg/Ogmnn9rXrIlEgYAQQoYQNGc5NNQPXip8YT+ucX++xyXDaMuvzTUF2P9RlAnzm/Sz44vT3ZEGg9BAYJIEBcChAYNQLmWT5GgKo8i3SwtSy9jdqwUXEwAghQMJQYgkCVBIw7ZBbVvB9LMGQd8amSNNljSgABiunA0KwmJaCiY1yeWrwetnua9Jpo4W4hQC08+HR95AgMF49avJjhZRClkRtDagpPAAEKzxSLEIAABCDgQQAB8oBEFghAAAIQCE8AAQrPFIsQgAAEIOBBAAHygEQWCEAAAhAITwABCs8UixCAAAQg4EEAAfKARBYIQAACEAhPAAEKzxSLEIAABCDgQQAB8oBEFghAAAIQCE8AAQrPFIsQgAAEIOBBAAHygEQWCEAAAhAITwABCs8UixCAAAQg4EEAAfKARBYIQAACEAhPAAEKzxSLEIAABCDgQQAB8oBEFghAAAIQCE8AAQrPFIsQgAAEIOBBAAHygEQWCEAAAhAITwABCs8UixCAAAQg4EEAAfKARBYIQAACEAhPAAEKzxSLEIAABCDgQQAB8oBEFghAAAIQCE8AAQrPFIsQgAAEIOBBAAHygEQWCEAAAhAITwABCs8UixCAAAQg4EEAAfKARBYIQAACEAhPAAEKzxSLEIAABCDgQQAB8oBEFghAAAIQCE8AAQrPFIsQgAAEIOBBAAHygEQWCEAAAhAITwABCs8UixCAAAQg4EEAAfKARBYIQAACEAhPAAEKzxSLEIAABCDgQQAB8oBEFghAAAIQCE8AAQrPFIsQgAAEIOBBAAHygEQWCEAAAhAITwABCs8UixCAAAQg4EEAAfKARBYIQAACEAhPAAEKzxSLEIAABCDgQQAB8oBEFghAAAIQCE8AAQrPFIsQgAAEIOBBAAHygEQWCEAAAhAITwABCs8UixCAAAQg4EEAAfKARBYIQAACEAhPAAEKzxSLEIAABCDgQQAB8oBEFghAAAIQCE8AAQrPFIsQgAAEIOBBAAHygEQWCEAAAhAITwABCs8UixCAAAQg4EEAAfKARDf0q5sAACAASURBVBYIQAACEAhPAAEKzxSLEIAABCDgQQAB8oBEFghAAAIQCE8AAQrPFIsQgAAEIOBBAAHygEQWCEAAAhAITwABCs8UixCAAAQg4EEAAfKARBYIQAACEAhPAAEKzxSLEIAABCDgQQAB8oBEFghAAAIQCE8AAQrPFIsQgAAEIOBBAAHygEQWCEAAAhAITwABCs8UixCAAAQg4EEAAfKARBYIQAACEAhPAAEKzxSLEIAABCDgQQAB8oBEFghAAAIQCE8AAQrPFIsQgAAEIOBBAAHygEQWCEAAAhAITwABCs8UixCAAAQg4EEAAfKARBYIQAACEAhPAAEKzxSLEIAABCDgQQAB8oBEFghAAAIQCE8AAQrPFIsQgAAEIOBBAAHygEQWCEAAAhAITwABCs8UixCAAAQg4EEAAfKARBYIQAACEAhPAAEKzxSLEIAABCDgQQAB8oBEFghAAAIQCE8AAQrPFIsQgAAEIOBBAAHygEQWCEAAAhAITwABCs8UixCAAAQg4EEAAfKARBYIQAACEAhPAAEKzxSLEIAABCDgQQAB8oBEFghAAAIQCE8AAQrPFIsQgAAEIOBBAAHygEQWCEAAAhAITwABCs8UixCAAAQg4EEAAfKARBYIQAACEAhPAAEKzxSLEIAABCDgQQAB8oBEFghAAAIQCE8AAQrPFIsQgAAEIOBBAAHygEQWCEAAAhAITwABCs8UixCAAAQg4EEAAfKARBYIQAACEAhPAAEKzxSLEIAABCDgQQAB8oBEFghAAAIQCE8AAQrPFIsQgAAEIOBBAAHygEQWCEAAAhAITwABCs8UixCAAAQg4EEAAfKARBYIQAACEAhPAAEKzxSLEIAABCDgQQAB8oBEFghAAAIQCE8AAQrPFIsQgAAEIOBBAAHygEQWCEAAAhAITwABCs8UixCAAAQg4EEAAfKARBYIQAACEAhPAAEKzxSLEIAABCDgQQAB8oBEFghAAAIQCE8AAQrPFIsQgAAEIOBBAAHygEQWCEAAAhAITwABCs8UixCAAAQg4EEAAfKARBYIQAACEAhPAAEKzxSLEIAABCDgQQAB8oBEFghAAAIQCE8AAQrPFIsQgAAEIOBBAAHygEQWCEAAAhAITwABCs8UixCAAAQg4EEAAfKARBYIQAACEAhPAAEKzxSLEIAABCDgQQAB8oBEFghAAAIQCE8AAQrPFIsQgAAEIOBBAAHygEQWCEAAAhAITwABCs8UixCAAAQg4EEAAfKARBYIQAACEAhPAAEKzxSLEKiTQFoymYykpF3M/zxT2uRr88xLNgjEgwACFI9xoBUQgAAEWo4AAtRyQ06HY0sgY1pW1OOp3buxnlTK242KLRoa1pwEEKDmHFd61SQEahOQ2gWrSbDRjYQQQIASMlA0s7UIRIWnNhFqLV70NpkEEKBkjhutbjIChSJTcjWuXL9rKtRkIOlOogggQIkaLhrbUgTSGXnujQH55tbj8viOE2W7rvs8KbPfkxnc7/nIOe3ymfM75KIzx1QRSddSdOlsDAggQDEYBJoAgWIE7nu+T1a8cFwGUm1GXHRfp3RSD0pTKtUuJojbBGQbMTLvfeHCTrnpwi4AQyCWBBCgWA4LjWpFAtEVtOf2puWqDccMhrQVkU/P7ZBJXcbLMb9Xut+nt1/kn7f2yz3P9dkIuPWLxspF04wnNJiGLffVECmX9D0q9tXi8ReGAMVjHGhFixNw4uMmxqWPHZHHd2bkSxd2yOc/0Gn8mepX0u5/IStCHz2nQ1ZdOjaWhCsJwZBnl8renNugkPJG2o4l+Jg0CgGKyUDQjNYmUDgBzl55yHo6v/ir8TKpU9lU9nwKCR7qG5Dzv3nUvr3juolBAF9zzTXS3d0tDzzwQEMFQRsbrcu38bWU8bVNvvAEEKDwTLEIgboJZAWohHBYdygqSG5/KHsUT1TMZq88Yn9/9W8m5NpU7tv+6tWrZfPmzbJt2zabf8GCBbJs2TK5+OKL7e+NmOCjXo5rpL537bXXyuTJk2XFihXePH3bF2IZ0rtRZCxJAAHi4oBA7AikZUg4JhVp3XBvqNgSnU6ys1cbDyg9YASomJ1804sWLbLCs3jxYpk7d6798JlnnpHHHnvMisBll12WEyD9vVHLYa5VvmIS7UUtZZxo67+N7lPsLrVRbhACNMoDQPUQKEagrAdUBlnhN/tzHuo1udvyPKBixW+44QZ59tlnZePGjTJz5sy8LNu3b5c5c+bkeUCzZs2SdevWycGDB62XtHz58mHl7rrrLlm/fr0cOHDACtrNN98s8+fPz/PQ1ONSO7t27bLlr7vuOrnqqqvy6nJi19PTI0uWLLGfbdiwoSgFJ0DR9mnd2j7XB1cwWrfmV0/P1a0stC7l4cpp/lWrVslTTz1llyFJ9RNAgOpniAUIBCegHpDu+9Szd6Ne0bmDe0k7rhtfso06sc+bN0/uuOMOOwGXW6LTCV69Ip3UdcLWsitXrrS2n3zyyVwdKmgqXCo6Ornrsp5O3mvWrLEipOn222+XRx99VG699VY7yeukH80T9WZ8xMct22n7tE6tW5fwVDj0vaiY3HbbbVb4brnllry69felS5fa9mmen/zkJ/LEE09Ygbzkkkts+3U5Uj0lAhfqv+wRoPoZYgECQQnYpbNBASq+dJa/BFduIjznocO2bdE9oMLGum/7+s2+0PspzKuioMt0W7ZsyX2kQnPFFVdYz0DL7969WxYuXJj7XTNqG+++++6cELg8GsygS3su6fuuDU6AVBivvvpq6219//vfl0mTJg1bKnMMXPsKvRRdXlS7Wl+pulWo7rzzTtmxY0euPSo6KpjKSP9VT4oUjgACFI4lliAQhMBoCZB6MOo5lEul9lhmz56d827U21EPSL2PaFIB0aQTvMsTneyLiZ2+p+VU9FSIrrzyyrL7NKXap+Kir5///Ocl63aeoC7vuT0wJ67KJerhBRlojAgCxEUAgRgSGM0luFoFyHkzTlzUCykUIbWt+ye+AuSW01QAVIQq7b+UEyBd3lPPbdOmTXLjjTfmeTraLucZRZfqnHeo/ahUdwwvo9g3CQGK/RDRwFYkEPcgBBWbaFIPyAmQTuS6dKV7MG4/RfP29vba5TP18Pbs2WOX6VwZt4RWuASney8qCJp0mU+FoFQAguYJuQSnHpG2Ufe6VIh03+fb3/52Xr/ZB6rvrxMBqo8fpSHQAAIjH4btNvmLhWGrt+KEotwSXHQ/RwMM1q5da6PadNNehUX3VzSPC0IoFQjgAhUK69LlsMsvv9wGLUSFLToAWkbFQj2mL3/5y/YjjcTzDUJQ25/73OdsObWlAqPtiYpRqbobcCE0vUkEqOmHmA4mkcBo3ojqwqKVm++NqFEPyPGOhjnrstunPvUp6xVFU7lQaBWAwhtRXaBAdJmsUIA02EDLuTBxF4Z93nnn5e0f6ZKcipN6WYVh2MVCrt2yYam6k3idjXabEaDRHgHqh4AhkJSjeOIyWHFa+opTW+IyPr7tQIB8SZEPAg0kEMfDSCtNrKU+d+9XKt9AnJhOCAEEKCEDRTObn0CSHsfQ/KNBD0eCAAI0EpSpAwI1EOCBdDVAo0iiCCBAiRouGttSBHgkd0sNdyt2FgFqxVGnz7EjMOzxAKaFqWpbWctT66qtg/wQCEgAAQoIE1MQCEUgKkhs5oeiip24EUCA4jYitAcCEQK1iU/1T08FOgRGgwACNBrUqRMCxQiUXEKrXVBqEzCGBwIjQwABGhnO1AIBCEAAAgUEECAuCQjEjkA6ezKCtFcRiVC7lxS77tOgliGAALXMUNNRCEAAAvEigADFazxoDQQgAIGWIYAAtcxQ01EIQAAC8SKAAMVrPGgNBCAAgZYhgAC1zFDTUQhAAALxIoAAxWs8aA0EIACBliGAALXMUNNRCEAAAvEigADFazxoDQQgAIGWIYAAtcxQ01EIQAAC8SKAAMVrPGgNBCAAgZYhgAC1zFDTUQhAAALxIoAAxWs8aA0EIACBliGAALXMUNNRCEAAAvEigADFazxoDQQgAIGWIYAAtcxQ01EIQAAC8SKAAMVrPGgNBCAAgZYhgAAVHWoe7uWw8EjnlpkL6CgERpwAAlSAPGN+T5mXm3j1X02plL5bKQ0XLibwSsz4HAIQaFUCCJDXyMfPI4q7sMW9fV7DTiYIQKChBBCgYXjT8txekW/+ol8ef/W4+bRNMqm0+X95D0gn3I/OHiOfPr9LPjStTSRtPKc2H69p+Pj6Tt6++XyvIF97ofP5to98EIBAcxFAgArG8/7n+uTen6nwRJMRFFEvqHxyub7whx3y+Yu6KmWP3ee+whK7htMgCEAgkQQQoMiwPbc3LVdtOGK9ni9+YIxce36HdHepF1N5Ce5wv8g3tvbLvc+fsPnXLhqf9YRIEIAABCBQlAAClMOSlqWPHZMfvjogX7qwS268sLP6S8asut3/s365//l++dNz2mXV/xhXvQ1KQAACEGgRAghQZKDPeajXRru9+JkJg55P9VdBr/GELvjGIRtF9+rfTKreQJES11xzjXR3d8sDDzwQxF45I7XUVUuZhneECiAAgdgTaJAAFV+yOmgm5//c0W+8jBPyy/0ie3rTZqJOSXsqI9Mmtcl7T07Jn5mN/D87u10mjx355avZKw/Z5bcd142va+CydsTYmTjMTrF9locfflg2bdokW7dutQK4YMECWbp0qcyfP9+WrzTBh9q7UTvXXnttTux87VZqX10wKdw8BPSOBr2toWxwjps7Ki97Nw+Y1u1JgwRoOND7X+iXr5s9kkN9wz+L3nOTSrVLd+cJ+cvzx8lNF3aM6MjMXnnE/H0M1O25qCelyccDWrRokWzbtk0WL14sc+fOteV+/OMfy2OPPWY9nssuu0yWLFkikydPHuYB+QpEIcRy5UqJSS1lRnTwqCyxBLLXlqrTyH/pTCy0Jml4UAFyN3EWsvnYvx+Vl98ym/Nt7WZ/fsB+rEIzPLJsKNpML8r3ntoum/9nfd5INeOknkuIpTNfD+iGG26QZ555Rr7//e/LzJkzc03VNrz00ksyZ86cPA9o1qxZsm7dOjl48KD1kpYvXy4zZszIu0n2rrvuyuVRQbv55ptznpSrYPXq1TbPrl27RG0uW7ZMrrrqqry63HJfT0+PFUBNGzZsKIrTiZb2Yf369bZ9Wvcdd9wh5513Xl6/1NsrVfezzz4rV199teXh+q5tXbVqlTz11FPWMyM1J4Fic0etX7Cak1Bz9iqoABVD9MdrDstrh7KnCURT/sXlhGfo35TxRDJmOWr6xJT8eMmE3MkEjRyGIeEYb5cGh04/8FsOcH2KClCpPyKd2OfNmydf+9rX5MorryzbLV0WU69IJ/XPfe5z0tvbaydlTU8++WSurAra9u3breiosGzevNnmW7NmTU6EbrvtNisAt9xyi53kddKP5ol6QD7io5W79mmdWrd6ayocKq4bN27MiYnWvXbtWrn11ltzda9cudL+rkuOmjTPT37yE3niiSdk9+7dsnDhwrz2l76GGnllYHtECZjpImP+q/bvb0TbSGVBCDRUgC77tyPyq/1D98/kL7WlrKhkUuYWz0zaXmy5z03ks3rkRgPsv39wStuIeEKlPBezU1XxRlQ3GtqHc1cdtr++smxCySN8dOJXz0K/2Ue9n2KjqqKgy3RbtmzJfaxCc8UVV+TKu8m60J56RFqXei8uj1vac8b0fdcGJ0DqvWj71JtRESnnfbj2FXopuryoHtqDDz5Ysm4VqjvvvFN27NiR69sll1wiF198sRUi3QdTT4/USgTMnJExX0Zru4+7lUAlvq8NEyC9ofOeF07YAAM9R0CX29SriC67FT9fzeXVb0DtptSAncQXv7dD/td5HVakNDmByv5sbBshqzdd8Z2j1sTGT+aHTztx9LVfyk60/Isvvih/+7d/K//0T/8kp59+eu6jaF3uZ803YcIE67VE0+WXXy7/8A//YD0p9TZUbCZOzA98OHQoGxChIuLy6M/RFBX/r371q/YjLffb3/5Wrr/+evnoRz9asus6Hn/3d3+Xa1+0/d/73vfkO9/5jvV6Cut2+Q4fPmyX/+69914599xzbT2vvPKKfPGLX5QzzjhDdMnOXSfRLzCuQdWOje8Yki80gcJVhLSM72iXk8e1yRS9Z7vU+r1tht8KROgWY6/xBIIJUPT66enLyIfN0tvB/owRoJQMDApP4UTiuje03KUilXW9s96RbktmvwaN70jLNy8bb/7N/m73LFXU1IMazF8vLhUOrff7f5Hdd6rGbjTv5f+uN7NKWTtu4r3xxhvlIx/5SNmmlxMgFSXdD3IT/Ne//nUrQoWTtQqY5lFvQ/dYSvVN61Jx1MlfXypCKpJavpg4asNLte+73/2u6MsJkKs7Kh5vvPGGfPazn5V77rknJ0C/+MUv5Pbbb5dJkybl6q53bCk/ugSif/vRlpiDrqRzTJu856T6v0CObg+pvRYCwQQoW3n2m8p3fnVcvvzEESMd7YMei4qEEZScuAz3hKJ7JdF82eiY7OnUXzA3h/7J2WNq6adHmbRc/u/H7CRb6AF5FM7L4utJ6YSsk+0//uM/2sk+mtQLUI9A26NeSTEPSJfgdM9FBWjfvn3y13/913Y/5pOf/GSOmQqdltX05ptv2snelXH16fvOC1MxUVFQQdCknogKmraxVNIyxYTqS1/6krWrezxqU9vnBFNtad/UQ/r2t79tPTRN2l7d5/r4xz9u2Wj6+7//+6JVV/MFodoxJH9oAtm5wQrRYCBSdNViXHtKzj3ZiFDkm2z2R7yf0CMRJ3sBBWjoQln62BH50c60+ifeeyeVobTJRdMy8tU/6jR2owEClUv65NA/jD//t8NBBEg9IB8h08lWxeU3v/mNXHrppTkPQD0Q3bfRyVr3QHSCVxFQ4YgmXYLTyd3dL6R7LY8//rh84hOfkAsuuMAKjk7uWk6X6TS5PCpU73nPe6y3o16KLuVpmUJvRvdmbrrpJvn0pz9t7RYLqoh6TbofpOmHP/yh3bO67777bL+03EMPPSQ/+MEPrEjqeyowWrf+rrY1qS0nOspHBVM/c5/7jCV5kklg5iS9/y+ZbafVtREIKEBDDdDIN73JtHDJprYmDpU6bVxKvv6xxl2hV3xHb1JK1+EBZUU46gFF96oK++/46CSsE/brr79us6hYOBFxk3IlD8jZVlsqQmpLl7B0/0Yn+GiK1qeel9al+bQ9KgDjx4/P22/S/N/61resmMyePXvYMGoZ9XRUJLVu3T9ScdP9I7evU9g+9Yiidevnbs8ouuTnlg11j6hY3fVeU5SPDwFdXp89Jd8Lik/raEkjCAQToOgekIsmC9lg9807ujwWKvjAtdMJx/pFY3N7TdnPKi8DOKE5ava9rtx4zJYqt5Q32stH0fpD3m9Raq0/L8pxMJCklusjGrjiAlJqsUOZeBHImNMR2swkct6p7AXFa2Qa25pgAhRtpruhU9/LTjy6ZDb8XqDqupaNjvuPvxgnbek2SbeZ2DpjMj0Yqqk/15N0Mlv+k+Py3OsZ+dT72uSq95rQHPMcICs/GgzhY9+Ejj76cp+sf/m4OQl7jNw2Xw80NUuRJlAiWr7YfpfrRzFh0vztFWJSXfkog1qFpZZylfhE2xfS/mgLeT3XHGWHCLi/sTlT9QZ1lyp/8YNhsgk0RIDOWWX2QGxotM6/evaTmT7N7/UlIzomJPv/fHJ8yWiseuzrN7CX3jwh//vJ41YsP/W+MXLF742xnpDPJHfkeEY2/uaEPPpLs/Ro+nrHwk5xf0zRCbdUJNmQWFdWOmevlLcR5VCsvlq8EZ+6on3wYVaqnfWMI2WTSiArNvkCNNiXsiHaSe0v7VYCwQVIz1Jb+Gif3QPKJr+HufkMx2njM/J1E4rtklv28vZQKlSik+ba7X2y7pdOBIbCwn3ap3lUHFS8Fp9X/eMcyolTYf2FE3y1E36OYeQGYNf+Un0ttvxVqV6fPkXFrZI933EgX9IIZO8LsntApJYhEFyAlNyyHxyVx3fog9myS3Ahkk7sfzS9Xb5ycZe5Sdp4JepZ5VIYV90J2Utvm6W+X5+Qn76uxwFlT2rwSR88s10W/bd2ed9p7bklt1DiGK3fZ1Ivlb9cP0JO/mornc4GorjrwHfPppK3FbKdPuNKnsYT0PuBpk1slykm0IjUOgSCCVB0mcneB/T/shvxIUXopg90DLsPqNJkVe1QZg/lzZ88/W0Mv9vb3vugAmaWIQsnYJ+JtFj/Ct/zsePfh/I5q+FdqV2VvLhq6grVP+yMDoFxHW1y7pR88WHlbXTGYiRrDSZA0Ub3HkvLgkePiD6czS3B5W88Z91sXa7L3pzmbjYdHqyQnbTbZEJHRr5pQrDzTkIwQuH7rXokoVIXBCBQSEC94WyAgfu7t19OzZezcR1jZPZJeD6teM2EF6DBry33PX9c7nuhb+jsNl2S0RNuB1fOhi/NDZ0BNyRKQ+/pOXC6r5InOPbAQr/lsVYcXPoMgTgSyH4ZzciEzjFyktkqZdktjqM0Mm0KL0CRdv/5vx6Rl98ZEojsCQYaOz101Ho0RMGJixMnd5KCnoa9yTwXaNh3JHz0kblKqAUCgQnUEoofuAmYiwGBhgqQ3gPzx2uOmog4DUYYOguusN+FwpN107OnYc+YJPL01UUeSof4xODyoQkQgAAEaifQMAHK6YP54TJzNlr0uUDZtV897Vp9mujjF8yeTiTqTJ+IusnceOpSKc3h21TtFwAlIQABCIwWgYYJUGGH7nu+T76xdUAO9UceuVAQ4uyeF9TdlZLPnN8hN12oDwqpnHCGKjMiBwTiQIAvi3EYhfi0IagAFQpB7rEK6vGY10ETmf2jncflR68el5f3D8hrvUNRbDMmtcn7Tk3JR87pkD89W0/F1TsD/B6K6JsvPthpCQQgAAEIBBWgIZzufpjsv8XOPhueNzoYVd5YigJxJUMAAhBIHIEGCVDiONBgCEAAAhAYYQII0AgDpzoIQAACEMgSQIC4EiAAAQi0AIE4BoAgQC1w4dFFCECgtQgcOXJEjh07Jv39/fZV7siyEMKkhwd0dnba19ix5sg081RlTZVsI0CtdV3SWwhAoEkJ6OnzPT09cujQIRkY0HM2s6mcCFQSiFpRtbe3y8SJE6W7u1va2ko/YkMFSMUrtXPnTntK21lnnVVrnZSDAAQgAIFRINDX1ydvv/22nDiRfQxOOfGpdEp9Lc0vZVOF6NRTT7VeUbE24QHVQpsyEIAABGJC4MCBA3Lw4MG81ujEr8tgOvHrstiYMWNyn6tI6bLc0aNH7Us9p0Y/VWDy5MkyZcqUYcQQoJhcRDQDAhCAQLUE1Os5fPiwLaYiostdJ598sl3+8klaRsvv37/fJ3vZPKWW85x3NGHCBOsNRRMCVDd2DEAAAhAYeQKFnk9XV5ecdtppZfdcSrVSvaB9+/aJLuU1MqkXpN6QSwhQI2ljGwIQgEAgAlEPQyPc3nzzzZzlSZMmWc/HeULDn7fm14h33nlHenvN4wtMCrlXFG376aefLiqWah8B8hsXckEAAhCIBQH1Vvbu3ZuLdNN9Hp3UQ6U33nijoZ6Q7k9NmzbNemoIUKhRww4EIACBESAQXXpTL2LGjBk1LbuVW47bs2dPQwMTXFACAjQCFwxVQAACEAhFQMXB3edzyimneAccVFO/3ksUIjChVJ3qBalwIkDVjAp5IQABCIwiAT3h4K233rItcJN4tDkhbyyNCl29Xc49msc+6VofziMyderUXF+4EbVewpSHAAQg0GAC6pWod6IpGnjQiGpdQEJIUXPtVJt6SoIGPHASQiNGD5sQgAAEAhOIBgioB+HOXAtcjTUX9bZC21cB0uAJF/aNBxSaMPYgAAEIBCawa9euXHDA9OnT8044CFyVPdbntddeC202Zy8a5o0ANQwzhiEAAQiEIeA27dXaSJzbGa0vTA+KW0GAGkkX2xCAAAQCEEiqAFW6qRUBCnBxYAICEIBAIwmwBNdIutiGAAQgAIGiBHTjXoMQ9CRrTXqwpx7w2YgoNbXfyCAEta+ndLu+4AFx0UMAAhCIOYHoWW0jFYYdCknhMpy2P3fuHA+kC4UZOxCAAAQaQ6DSjaghaw15I2qxdnEjasjRwhYEIACBESDAUTwjAJkqIAABCEAg+6C56OMVmukwUrPyxkkIXOQQgAAEkkKg8HEM+mydM844I1jzNdBBnzekj0uInuHmW0GlkGsex+BLknwQgAAEYkjAPZDOTfa6oX/SSSfleUqFzfaJlosGOYTutqtfn12kx/Bo4jTs0JSxBwEIQGAECMT9kdzFPCH3HCDFo4Kk9zVpIgx7BC4YqoAABCBQC4FS3svbb78thw8fzpnUSV8fzT1x4kSvatSullfPR5f2an2Ud7SyYm3V97RNeu+SEx8eye01RGSCAAQgEF8ChZ6QTuy6zzJu3Di71KU3fI4ZMybXAT1kVG8A1WU8DetW4allr6caIlHPJ1qOJbhqKJIXAhCAwAgSUIFQoVDB0JcKRalUafPfZw+o1q6Vsq2BDHq/jwphsTwIUK3EKQcBCEAgMAGdpPXV09NjHzynj96OTtzFJvG8xxoY78eJlP7rItl8mllJwMrZKGyXelx6TJA+dE7bUCohQD4jQx4IQAACI0BAvR3d11HhqSdVEq1abJfzoFS8dKlPX+rt+D4oDwGqZSQoAwEIQCAwgcK9HDWvezk6mRfu5agYqEjpE0X1pUt19YqWT3emTJkiup8TKiFAoUhiBwIQgECNBOqNZtNqdclOo9kK94lC7v24aLZTTjnFRsyVs+1TLwJU4wVDMQhAAAIhCMT9fp5ifSwV1VYtDwSoWmLkhwAEIBCIwNGjR+Wtt97KeS16r4x6F/WmRp5o4NoWPdGg1vYiQLWSoxwEIACBOgiUOtPNZ+nKp9o333zThnA3KkXPdKu1xV0NgAAABGZJREFUDgSoVnKUgwAEIFAHgVKnWocSIBU4fXRDuXuH6mi+LVrvUhwCVO8IUB4CEIBABQLFRKXwuT5630yIo3CiTdHAhP379wcbn8J7hdQLmjFjRs32EaCa0VEQAhCAgB+BQgGKPtlUb9qcPn26n6Eacr322muix++ETFEh0pMOfO/7KWwDAhRyVLAFAQhAwIPAu+++a0870KSPUtADRBuV1ANST6hRqZ72I0CNGhXsQgACEChBQB/6pjeQaqrHg/ABHPW2fPJXm0dvktWIuFoSAlQLNcpAAAIQqIOAPgfHBQfo8lv0tOo6zBYtqstvugzXqKTLcbNmzarJPAJUEzYKQQACEKidwM6dO3MBB2eddVbthjxKRh/85pG96ixq/+yzz666nBZAgGrCRiEIQAAC1RNwwQgjKUDRib76FueXKBUiXquIIkD1jgjlIQABCFRJgCW4LDAEqMoLh+wQgAAE6iUQPaUg6UEIXV1dcsYZZ9SEBAGqCRuFIAABCNROIHpWmz607aSTTqrdWJGS0aWyRp4Lp/Vo+2sNI68oQKGOhQhKF2MQgAAEEkwgGhpd72kClTBET1yolLfU5+UecOfrwfFI7lrpUw4CEIBAYAKFR/HoSdihkpvsQx/FU9i+esWzogcUCgh2IAABCEBgiED0NAS9l0bvB9IJXVO1K0/F8usTUvfu3WuflBr6jDnXi+CHkeoNRdHGVguCCwwCEIAABCoTKPU4hsol/XJET1vwK+GfSzWira1NzjzzzJxoVipdqCXR+5NSJi49U88drZUq53MIQAACEMgnoM/r0Yg4l+o5Vy1quVHnv6loqPDovyEeSOfC0a0AaQdqvaGICwsCEIAABKonUPhIbj1b7dRTT/X2LKI1qle1b9++3Dlz1bfGr0S9S2+ulrw9IFW1adOmSWdnp18ryAUBCEAAAnUTePvtt+Xw4cN5dvTR3NUEJmjAgYZcuzPmCp/dU3cjBw3oc4tUIOtN/f39do9K25nzgDQeXeO62fupFy/lIQABCPgTKPSEtKQGJeizdtQrUsdAf3d79HrIqJ6orS8N61bvp5FPP9X2hPB8nLbo4yg0EENTToB8wurKxYT74yYnBCAAAQhECeiekHpDGrlWTarX26nkcKguqNejQlgqVasL0TD0lDGa0QPyNE2ZMsUqHQkCEIAABEaWgHoyBw8etEty1QpRiJZGhUSFR5cBdVVMgw9CJe2fenya9CTtPAHSN6MRDpXUMVSjsAMBCEAAAkMEdGlNvSLdL9GXm4sLl9pCzdHqSelSn77U26n1UduFYxhtX2HkX06AtJDzgvCE+DOAAAQgEC8CoYRmtHoV9Xyc96P/Wg/INSoqQuqCqfvlNsE0T9IhjBZ86oUABCDQCgSiGqGem3o9GnQQXVKMPsQuT4AKPSFEpxUuGfoIAQgkiUBoR6Baey4ar1LkXTG7hU9QHSZAbiD0RqFKFSRp0GgrBCAAgWYjUE48qhEWX1GphZ/aLnXQwf8HkbJZwccwV/8AAAAASUVORK5CYII=;imageBorder=none;fontFamily=Lucida Console;" vertex="1" parent="5IaU9lcffaFXkDmT9sVI-23">
          <mxGeometry y="17" width="236" height="236" as="geometry" />
        </mxCell>
        <mxCell id="5IaU9lcffaFXkDmT9sVI-21" value="random_ui.jpg" style="text;html=1;strokeColor=none;fillColor=none;align=center;verticalAlign=middle;whiteSpace=wrap;rounded=0;" vertex="1" parent="5IaU9lcffaFXkDmT9sVI-23">
          <mxGeometry width="80" height="17" as="geometry" />
        </mxCell>
      </root>
    </mxGraphModel>
  </diagram>
  <diagram id="v5fBXcDf2tc-m4R5Z6yn" name="UI Randomizer">
    <mxGraphModel dx="941" dy="1253" grid="1" gridSize="10" guides="1" tooltips="1" connect="1" arrows="1" fold="1" page="1" pageScale="1" pageWidth="1169" pageHeight="1654" math="0" shadow="0">
      <root>
        <mxCell id="0" />
        <mxCell id="1" parent="0" />
      </root>
    </mxGraphModel>
  </diagram>
  <diagram id="aimYrtN8m5MU8YxvKcbr" name="Development container">
    <mxGraphModel dx="941" dy="1253" grid="1" gridSize="10" guides="1" tooltips="1" connect="1" arrows="1" fold="1" page="1" pageScale="1" pageWidth="1169" pageHeight="1654" math="0" shadow="0">
      <root>
        <mxCell id="0" />
        <mxCell id="1" parent="0" />
      </root>
    </mxGraphModel>
  </diagram>
</mxfile>
